<svg xmlns="http://www.w3.org/2000/svg" width="1100" height="330" viewBox="0 0 1100 330">
 <rect width="1100" height="330" rx="24" fill="#f6f8fc"/>
 <text x="36" y="48" font-family="Arial Unicode MS, PingFang SC, sans-serif" font-size="26" font-weight="700" fill="#17233d">图像 / 视频怎样进入语言模型</text>
 <g font-family="Arial Unicode MS, PingFang SC, sans-serif" text-anchor="middle">
  <rect x="35" y="105" width="175" height="115" rx="16" fill="#dceaff" stroke="#5c8ddd" stroke-width="2"/><text x="122" y="150" font-size="20">图像或采样帧</text><text x="122" y="181" font-size="15">像素 + 时间戳</text>
  <rect x="255" y="105" width="175" height="115" rx="16" fill="#dcf5eb" stroke="#53ad86" stroke-width="2"/><text x="342" y="150" font-size="20">视觉编码器</text><text x="342" y="181" font-size="15">patch → 特征</text>
  <rect x="475" y="105" width="175" height="115" rx="16" fill="#f3e8ff" stroke="#aa7bd3" stroke-width="2"/><text x="562" y="150" font-size="20">连接 / 压缩</text><text x="562" y="181" font-size="15">MLP、Q-Former 等</text>
  <rect x="695" y="105" width="175" height="115" rx="16" fill="#fff0d7" stroke="#d79c44" stroke-width="2"/><text x="782" y="150" font-size="20">语言模型</text><text x="782" y="181" font-size="15">视觉 token + 问题</text>
  <rect x="915" y="105" width="155" height="115" rx="16" fill="#ffe7e7" stroke="#d87979" stroke-width="2"/><text x="992" y="150" font-size="20">文字答案</text><text x="992" y="181" font-size="15">描述 / 问答 / 定位</text>
 </g>
 <g stroke="#4a638d" stroke-width="3" fill="none"><path d="M211 162h37m-9-8 9 8-9 8"/><path d="M431 162h37m-9-8 9 8-9 8"/><path d="M651 162h37m-9-8 9 8-9 8"/><path d="M871 162h37m-9-8 9 8-9 8"/></g>
 <text x="45" y="278" font-family="Arial Unicode MS, PingFang SC, sans-serif" font-size="17" fill="#46556c">面试追问：保留多少帧和视觉 token？时间顺序有没有被表示？训练时哪些模块更新？</text>
</svg>
